/* XPM */
static char *result[] = {
/* columns rows colors chars-per-pixel */
"32 32 122 2 ",
"   c #604E14",
".  c #6E5917",
"X  c #655418",
"o  c #6A571A",
"O  c #6C591C",
"+  c #715D1D",
"@  c #77621F",
"#  c #7A641F",
"$  c #6C5A21",
"%  c #715E21",
"&  c #766326",
"*  c #7B6724",
"=  c #7C6824",
"-  c #7D6C32",
";  c #7F7248",
":  c #816B25",
">  c #826D2A",
",  c #86712C",
"<  c #8B752D",
"1  c #8E782E",
"2  c #90792F",
"3  c #877231",
"4  c #8C7732",
"5  c #8E7831",
"6  c #947E34",
"7  c #978035",
"8  c #9B8336",
"9  c #96813C",
"0  c #9C853B",
"q  c #9E883F",
"w  c #A08735",
"e  c #A38936",
"r  c #A38B3C",
"t  c #A88F3C",
"y  c #AA913D",
"u  c #B2973D",
"i  c #938146",
"p  c #9B8641",
"a  c #9E8943",
"s  c #9E8D58",
"d  c #A48D42",
"f  c #A88F44",
"g  c #A48F48",
"h  c #A79045",
"j  c #AB9343",
"k  c #A69049",
"l  c #AC954A",
"z  c #AE984D",
"x  c #B09746",
"c  c #B29846",
"v  c #B09748",
"b  c #B39B4B",
"n  c #B89F4F",
"m  c #A59254",
"M  c #AC9652",
"N  c #AD9955",
"B  c #AC9A5F",
"V  c #B49E53",
"C  c #B19E5C",
"Z  c #BAA14B",
"A  c #B7A054",
"S  c #BAA253",
"D  c #BCA459",
"F  c #BFA85C",
"G  c #B4A267",
"H  c #BEA961",
"J  c #B6A56C",
"K  c #B9A669",
"L  c #BEAA6D",
"P  c #B6A672",
"I  c #BEAC73",
"U  c #BDAD7B",
"Y  c #C1A751",
"T  c #C7AD56",
"R  c #C2AB5D",
"E  c #C8AE58",
"W  c #C3AC62",
"Q  c #CBB465",
"!  c #CFB769",
"~  c #D8BD62",
"^  c #D1BA6D",
"/  c #C3B27D",
"(  c #D1BB72",
")  c #DDC267",
"_  c #DBC474",
"`  c #DDC678",
"'  c #E3C76A",
"]  c #E6CA6D",
"[  c #E0C877",
"{  c #E5CD7C",
"}  c #E7D07F",
"|  c #E8D07F",
" . c #C2B280",
".. c #CCBC8A",
"X. c #D0BF8C",
"o. c #DFCA86",
"O. c #DBC888",
"+. c #D3C493",
"@. c #D7C89A",
"#. c #DACB9B",
"$. c #DFD09F",
"%. c #E4CD82",
"&. c #E2CE8E",
"*. c #E7D081",
"=. c #E9D182",
"-. c #EBD58B",
";. c #E7D390",
":. c #ECD792",
">. c #E6D59D",
",. c #EDDA9B",
"<. c #DBCDA0",
"1. c #DED0A3",
"2. c #E2D3A6",
"3. c #EFDDA3",
"4. c #E8DAAD",
"5. c #F0DFAA",
"6. c #EBDDB1",
"7. c #F1E1AD",
"8. c #EFE2B7",
"9. c #F2E3B5",
"0. c #F3E6BD",
"q. c None",
/* pixels */
"q.q.q.q.q.q.q.q.q.q.q.q.q.q.q.q.q.q.q.q.q.q.q.q.q.q.q.q.q.q.q.q.",
"q.q.q.q.q.q.q.q.q.q.q.q.q.q.q.q.q.q.q.q.q.q.q.q.q.q.q.q.q.q.q.q.",
"q.q.q.q.q.q.q.q.q.q.q.X , a 7 d r r < , & q.q.q.q.q.q.q.q.q.q.q.",
"q.q.q.q.q.q.q.q.q.: r d n d j z 7 Z t V 9 9 , q.q.q.q.q.q.q.q.q.",
"q.q.q.q.q.q.q.# d d j l t A t b d b k 8 l t n 4 O q.q.q.q.q.q.q.",
"q.q.q.q.q.q.* r b 5 a 7 l l e l 6 S 7 q Q b l 6 l % q.q.q.q.q.q.",
"q.q.q.q.q.< A y x W *.D q Y j n d Z l _ 3.` l d S h O q.q.q.q.q.",
"q.q.q.q.+ h a 0 h &.3.%.l d 0 j r d ! ,.0.3.l r b q r o q.q.q.q.",
"q.q.q.& q y V 7 b 4.0.,._ 0 d z l V *.9.0.5.R 7 n d j 0 q.q.q.q.",
"q.q.q.0 q j c 6 W 9.0.9.=.[ { =.| =.=.3.9.7.^ 8 Z d r b O q.q.q.",
"q.q.O b h Z r h ( 9.9.,.=.| | | =.=.=.| -.-._ 6 Y r l a 5 q.q.q.",
"q.q.: c b r F r ^ ,.-.=.| -.=.| -.-.=.| =.| [ q v l j R e O q.q.",
"q.q.< S 8 l l 0 ^ =.=.=.-.9.5.-.7.9.-.| | | { 0 V 0 b h r > q.q.",
"q.q.7 V j j V 0 [ | { _ %.7.5.=.,.>.H Q | | | D l l y S j 6 q.q.",
"q.q.e b 0 c q l | =.{ Q q ! -.=.=.^ l ` =.-.| _ h a b h d 0 q.q.",
"q.; 8 n j y d R | -.,.:.` { O.B K ;.-.-.7.9.,.| l l h b r l q.q.",
"q.; r b j j j ^ -.9.0.0.7.9./   O #.9.9.0.0.0.,.F q d S r h q.q.",
"q.q.2 b r n l o.7.0.0.0.0.0.2.- s 6.0.0.0.0.0.0.+.8 z d j a q.q.",
"q.q.8 b b r C 6.0.0.0.2. .2.1.m K @.+.P ..0.0.0.#.a y D r 5 q.q.",
"q.q.2 A 8 b V 4.0.0.0.#.$ 3 R ) ~ h o - +.0.0.0...8 b j 8 , q.q.",
"q.q.= n b x N #.0.0.0.0.U 6 ' ] ] T i #.0.0.0.0.L b h V r . q.q.",
"q.q.. j r x r m 0.0.0.0.0./ E ] ) R <.0.0.0.0.#.N r l h , q.q.q.",
"q.q.q.q y j k 7 / 0.0.0.0.8.G d M ..0.0.0.0.2.M c d l n + q.q.q.",
"q.q.q.O 9 j l u r L 4.0.0.0.0.1.2.0.0.0.0.#.C 0 l j r a q.q.q.q.",
"q.q.q.q.@ b l r j 7 m / 2.0.0.0.0.0.9.#.L d l 8 S r d % q.q.q.q.",
"q.q.q.q.q.: D t Y j b j d k B I J K N 0 V y Y j b h * q.q.q.q.q.",
"q.q.q.q.q.q.* a j j S 0 b h 9 j e N 8 c a q n y d * q.q.q.q.q.q.",
"q.q.q.q.q.q.q.* l r b h j h r S j b l f b y A , O q.q.q.q.q.q.q.",
"q.q.q.q.q.q.q.q.q.> r j c d 0 l r n t j d 1 * q.q.q.q.q.q.q.q.q.",
"q.q.q.q.q.q.q.q.q.q.q.+ 5 8 0 b < h < , & q.q.q.q.q.q.q.q.q.q.q.",
"q.q.q.q.q.q.q.q.q.q.q.q.q.q.q.q.q.q.q.q.q.q.q.q.q.q.q.q.q.q.q.q.",
"q.q.q.q.q.q.q.q.q.q.q.q.q.q.q.q.q.q.q.q.q.q.q.q.q.q.q.q.q.q.q.q."
};
