/* XPM */
static char *result[] = {
/* columns rows colors chars-per-pixel */
"16 16 157 2 ",
"   c #7A6625",
".  c #7D6B2A",
"X  c #806C29",
"o  c #836F2C",
"O  c #85702C",
"+  c #88722A",
"@  c #8A742B",
"#  c #88722F",
"$  c #8A742F",
"%  c #877230",
"&  c #8B7630",
"*  c #8E7836",
"=  c #8D7939",
"-  c #927B31",
";  c #927B32",
":  c #917C34",
">  c #988134",
",  c #9F8736",
"<  c #958039",
"1  c #9D8539",
"2  c #9F893B",
"3  c #9F893C",
"4  c #9F883D",
"5  c #9E883F",
"6  c #A08839",
"7  c #A28939",
"8  c #A38B39",
"9  c #A38C3A",
"0  c #A18A3F",
"q  c #A28B3E",
"w  c #A58E3C",
"e  c #A48C3E",
"r  c #A48D3F",
"t  c #A58D3F",
"y  c #A48E3F",
"u  c #AA903D",
"i  c #9A8540",
"p  c #A18A40",
"a  c #A18B40",
"s  c #A18B42",
"d  c #A28C42",
"f  c #A38D42",
"g  c #A68E41",
"h  c #A58E42",
"j  c #A18C45",
"k  c #A58F47",
"l  c #A79145",
"z  c #A69046",
"x  c #A99142",
"c  c #A99242",
"v  c #A99243",
"b  c #AA9243",
"n  c #AF9641",
"m  c #A99245",
"M  c #AA9344",
"N  c #A89146",
"B  c #AA9346",
"V  c #AB9346",
"C  c #AD9544",
"Z  c #AD9545",
"A  c #AE9544",
"S  c #AE9646",
"D  c #AE9647",
"F  c #AF9747",
"G  c #A59049",
"H  c #A89248",
"J  c #A99248",
"K  c #A89249",
"L  c #A99349",
"P  c #AD9548",
"I  c #AC9549",
"U  c #AC964B",
"Y  c #AF974A",
"T  c #AE974B",
"R  c #B09742",
"E  c #B09848",
"W  c #B39B49",
"Q  c #B19A4D",
"!  c #B29B4D",
"~  c #B59D4D",
"^  c #AE9851",
"/  c #B29D59",
"(  c #B7A25C",
")  c #B9A35A",
"_  c #BCA65F",
"`  c #A59560",
"'  c #AA9A66",
"]  c #AC9C66",
"[  c #B6A260",
"{  c #B9A562",
"}  c #B9A567",
"|  c #BFA963",
" . c #BAA769",
".. c #B3A472",
"X. c #C2AB5C",
"o. c #C7B062",
"O. c #CAB364",
"+. c #CFB764",
"@. c #CDB668",
"#. c #CCB76F",
"$. c #D2B861",
"%. c #D0B96C",
"&. c #D1BA6F",
"*. c #CAB571",
"=. c #CDB872",
"-. c #C5B379",
";. c #C7B67F",
":. c #CBB97E",
">. c #CBB97F",
",. c #D3BF7B",
"<. c #DBC373",
"1. c #D7C178",
"2. c #D7C27E",
"3. c #DAC378",
"4. c #DCC67E",
"5. c #E2CA7A",
"6. c #E8D07E",
"7. c #CDBB81",
"8. c #CBBB88",
"9. c #D5C283",
"0. c #DCC885",
"q. c #D2C28F",
"w. c #D6C68F",
"e. c #D7C691",
"r. c #D7C792",
"t. c #E1CB81",
"y. c #E4CE83",
"u. c #E3CD85",
"i. c #E9D182",
"p. c #EAD388",
"a. c #EAD488",
"s. c #E3D193",
"d. c #E8D593",
"f. c #E9D594",
"g. c #ECD893",
"h. c #EDD997",
"j. c #E8D699",
"k. c #ECD999",
"l. c #DFD1A4",
"z. c #EFDEA6",
"x. c #E2D5A9",
"c. c #E6D8AB",
"v. c #EFDFAB",
"b. c #E9DBAC",
"n. c #ECDEB3",
"m. c #F1E1AE",
"M. c #EFE2B8",
"N. c #F0E1B3",
"B. c #F1E2B2",
"V. c #F1E2B3",
"C. c #F0E3B9",
"Z. c #F1E3B9",
"A. c #F1E4B9",
"S. c #F1E4BB",
"D. c #F2E5BB",
"F. c #F3E6BC",
"G. c None",
/* pixels */
"G.G.G.G.G.G.G.G.G.G.G.G.G.G.G.G.",
"G.G.G.G.G.& 3 z e q : G.G.G.G.G.",
"G.G.G.X K 0 S G D d I k % G.G.G.",
"G.G.. J | 1.~ n Z =.s.Q w   G.G.",
"G.G.t g 9.m.&.o.@.d.v.^ Y l G.G.",
"G.2 m Z 0.h.a.i.p.i.p.X.! A o G.",
"G.8 j i <.5.f.g.j.3.6.O.T L s G.",
"G.p W ~ y.u.#.,.2.4.k.t.V C y G.",
"G.9 R %.z.A.V.` ..N.D.B._ N h G.",
"G.c f 7.F.x.] *.[ ' l.D.} u = G.",
"G.- a { Z.S.;.$.+.8.M.c.( H + G.",
"G.G.v x -.n.C.w.e.C.b. .F 5 G.G.",
"G.G.$ Y r ) :.r.q.>./ 0 E # G.G.",
"G.G.G.@ 7 M U P b B 6 1 O G.G.G.",
"G.G.G.G.G.* > 4 < ; , G.G.G.G.G.",
"G.G.G.G.G.G.G.G.G.G.G.G.G.G.G.G."
};
