/* XPM */
static char *result[] = {
/* columns rows colors chars-per-pixel */
"64 64 169 2 ",
"   c #5D4B11",
".  c #614E15",
"X  c #604F18",
"o  c #645116",
"O  c #6A5616",
"+  c #6F5A16",
"@  c #65531A",
"#  c #69561B",
"$  c #6C591C",
"%  c #725D17",
"&  c #725E1C",
"*  c #76611C",
"=  c #79641C",
"-  c #7E681F",
";  c #6D5C21",
":  c #715F25",
">  c #756223",
",  c #7A6522",
"<  c #7D6924",
"1  c #77652A",
"2  c #79672A",
"3  c #7D6A2A",
"4  c #7E6C31",
"5  c #8B711E",
"6  c #836C24",
"7  c #826E2B",
"8  c #877025",
"9  c #8B7425",
"0  c #86712C",
"q  c #8B752C",
"w  c #8F782C",
"e  c #917724",
"r  c #957B23",
"t  c #997E25",
"y  c #947C2C",
"u  c #987F2C",
"i  c #806E32",
"p  c #857233",
"a  c #8A7632",
"s  c #8E7933",
"d  c #8A773A",
"f  c #8E7A39",
"g  c #937D33",
"h  c #987F30",
"j  c #937E3A",
"k  c #8A7840",
"l  c #9C822C",
"z  c #978036",
"x  c #9B8434",
"c  c #95813C",
"v  c #9B843B",
"b  c #9F883E",
"n  c #A1862C",
"m  c #A4892E",
"M  c #A18733",
"N  c #A48A34",
"B  c #A98E35",
"V  c #A38B3C",
"C  c #A98F3C",
"Z  c #AB9036",
"A  c #AB923C",
"S  c #B1963D",
"D  c #B59A3E",
"F  c #B89C3F",
"G  c #958244",
"H  c #9B8642",
"J  c #9F8942",
"K  c #95844A",
"L  c #9A874D",
"P  c #9E8B4B",
"I  c #9A8951",
"U  c #A38D42",
"Y  c #A28E4A",
"T  c #A79045",
"R  c #AB9344",
"E  c #A4904E",
"W  c #AC954A",
"Q  c #AF984D",
"!  c #B09743",
"~  c #B49A45",
"^  c #B99E43",
"/  c #B49B4C",
"(  c #B99F4A",
")  c #A18F52",
"_  c #A39156",
"`  c #AA9654",
"'  c #AE9952",
"]  c #A6945B",
"[  c #AD9A5B",
"{  c #B49D52",
"}  c #B39E58",
"|  c #BDA146",
" . c #BCA24D",
".. c #B7A056",
"X. c #BBA353",
"o. c #B5A05B",
"O. c #BCA55A",
"+. c #BFA85C",
"@. c #AA9961",
"#. c #BCA662",
"$. c #BEA963",
"%. c #B5A36B",
"&. c #BAA86D",
"*. c #B7A671",
"=. c #BDAC75",
"-. c #BDAD79",
";. c #C2A74E",
":. c #C1A752",
">. c #C3A955",
",. c #C9AE55",
"<. c #C4AB5C",
"1. c #C8AF5C",
"2. c #CBB15D",
"3. c #D0B55F",
"4. c #C4AD62",
"5. c #C4AF69",
"6. c #C7B065",
"7. c #CCB464",
"8. c #C6B16A",
"9. c #CDB669",
"0. c #D0B763",
"q. c #D3BA66",
"w. c #D9BD62",
"e. c #D3BB6B",
"r. c #C0AF79",
"t. c #C3B27D",
"y. c #DEC266",
"u. c #D8C06F",
"i. c #DCC473",
"p. c #E0C467",
"a. c #E0C468",
"s. c #E6CA6D",
"d. c #E0C877",
"f. c #E5CC7B",
"g. c #E8CF7E",
"h. c #E8D07F",
"j. c #C5B581",
"k. c #C8B782",
"l. c #CAB985",
"z. c #CEBE8A",
"x. c #CFC08F",
"c. c #DFC982",
"v. c #D2C28E",
"b. c #D4C491",
"n. c #DACA93",
"m. c #DBCC9B",
"M. c #DFD09F",
"N. c #E6CE80",
"B. c #E9D181",
"V. c #EAD48A",
"C. c #ECD791",
"Z. c #ECD996",
"A. c #E4D39B",
"S. c #E8D69A",
"D. c #EDDA9B",
"F. c #DFD0A2",
"G. c #E2D3A3",
"H. c #EFDEA4",
"J. c #E5D7A9",
"K. c #E7D9AB",
"L. c #E9DBAE",
"P. c #F0DEA6",
"I. c #F0DFA9",
"U. c #ECDEB1",
"Y. c #F1E0AD",
"T. c #EEE1B6",
"R. c #F1E3B4",
"E. c #F4E7BE",
"W. c None",
/* pixels */
"W.W.W.W.W.W.W.W.W.W.W.W.W.W.W.W.W.W.W.W.W.W.W.W.W.W.W.W.W.W.W.W.W.W.W.W.W.W.W.W.W.W.W.W.W.W.W.W.W.W.W.W.W.W.W.W.W.W.W.W.W.W.W.W.",
"W.W.W.W.W.W.W.W.W.W.W.W.W.W.W.W.W.W.W.W.W.W.W.W.W.W.W.W.W.W.W.W.W.W.W.W.W.W.W.W.W.W.W.W.W.W.W.W.W.W.W.W.W.W.W.W.W.W.W.W.W.W.W.W.",
"W.W.W.W.W.W.W.W.W.W.W.W.W.W.W.W.W.W.W.W.W.W.W.W.W.W.W.W.W.W.W.W.W.W.W.W.W.W.W.W.W.W.W.W.W.W.W.W.W.W.W.W.W.W.W.W.W.W.W.W.W.W.W.W.",
"W.W.W.W.W.W.W.W.W.W.W.W.W.W.W.W.W.W.W.W.W.W.W.W.W.W.W.# $ @ ; : ; ; .   @ W.W.W.W.W.W.W.W.W.W.W.W.W.W.W.W.W.W.W.W.W.W.W.W.W.W.W.",
"W.W.W.W.W.W.W.W.W.W.W.W.W.W.W.W.W.W.W.W.W.W.W.X o & v v / r g <.V / 5 g v , O . X W.W.W.W.W.W.W.W.W.W.W.W.W.W.W.W.W.W.W.W.W.W.W.",
"W.W.W.W.W.W.W.W.W.W.W.W.W.W.W.W.W.W.W.W.$ O $ + 9 { +.q 6 V $.( 9 u R 4.R 6 y Q j #   W.W.W.W.W.W.W.W.W.W.W.W.W.W.W.W.W.W.W.W.W.",
"W.W.W.W.W.W.W.W.W.W.W.W.W.W.W.W.W.W.o < s R s v ..>.U a R >.X.p c W X.{ g v { <.U 7 v 7 # W.W.W.W.W.W.W.W.W.W.W.W.W.W.W.W.W.W.W.",
"W.W.W.W.W.W.W.W.W.W.W.W.W.W.W.W.o 2 7 z V 2.{ 0 V ^ <.H l V 1.4.z x V 2.{ 7 N ~ 1.P y V W p   W.W.W.W.W.W.W.W.W.W.W.W.W.W.W.W.W.",
"W.W.W.W.W.W.W.W.W.W.W.W.W.W.W.O p O.v ;.z 9.X.T ^ U e.V >.B Q 6.v ;.x 9.>.R ^ V e.v X.B Q 4.0 > @ W.W.W.W.W.W.W.W.W.W.W.W.W.W.W.",
"W.W.W.W.W.W.W.W.W.W.W.W.W.o o = A 6.V ~ 5 X.X.W Z l 2.R ! l V 2.V ~ r X.X.W B 5 q 3 g n V 2.V C % . W.W.W.W.W.W.W.W.W.W.W.W.W.W.",
"W.W.W.W.W.W.W.W.W.W.W.W.. & q ( 8.T 8 $ & j g 6 V 4.{ l w ( 8.T 8 y X.4.v 6 6 6 { e.T q 5.U q y ..G . W.W.W.W.W.W.W.W.W.W.W.W.W.",
"W.W.W.W.W.W.W.W.W.W.W.@ 7 g R :.X.s 7 W e./ , g  .X.Q p R X.O.f c /  .X.a s s 2.f.h.f.j U v j Q >.X.0 . W.W.W.W.W.W.W.W.W.W.W.W.",
"W.W.W.W.W.W.W.W.W.W.@ a 6.R z M { ..g i.B.h.9.> l U 9.Q y x { 9.V N x 7.W 0 6.h.V.C.B.e.a 2.V N x 2. .a . W.W.W.W.W.W.W.W.W.W.W.",
"W.W.W.W.W.W.W.W.W.. = V 9.V 2.N / v +.B.B.B.h.7.< x 9.U 2.N / 7.U ,.l <.v O.f.B.H.E.H.g.v ..V ,.l 2.X.W V . W.W.W.W.W.W.W.W.W.W.",
"W.W.W.W.W.W.W.W.W.  5 V 2.V z t V j i.D.Y.V.B.B.{ q 2.V x l Q >.g z t c U d.B.H.E.E.R.V.O.z g z y O. .g u > o W.W.W.W.W.W.W.W.W.",
"W.W.W.W.W.W.W.W.$ u X.8.U a v >.[ Q V.R.E.Y.B.h.f.g f s x >.$.c w U <.j 9.B.Z.E.E.E.E.C.u.2 q U 2.o.y g / 4.> W.W.W.W.W.W.W.W.W.",
"W.W.W.W.W.W.W.o p z ~  .<.a v A 9 6.D.E.E.E.H.B.h.2.& 2 s s 6 , 7 q 7 v f.V.Y.E.E.E.E.D.g.q 3 C ~ >.v s R | X.@ W.W.W.W.W.W.W.W.",
"W.W.W.W.W.W.W.f X.x Z W e.T V u 7 i.Y.E.E.E.E.D.h.f.g q U O.7.u.i.e.0.u.h.V.E.E.E.E.E.P.B.U 7 ~ z 9.:.v A U e.c   W.W.W.W.W.W.W.",
"W.W.W.W.W.W.o W X.X.D y 9.W 2.l z f.R.E.E.E.E.R.V.h.d.f.g.h.B.h.B.B.B.B.h.V.R.E.E.E.E.P.B...g ,.u { <./ | u 1.W # W.W.W.W.W.W.W.",
"W.W.W.W.W.W.p 4.V 9 x { <.g 8 9 U V.R.E.E.E.E.R.V.h.h.B.h.h.B.B.B.B.h.h.h.h.V.D.Y.E.E.P.h.9.& q A 8.W < l W $.x * @ W.W.W.W.W.W.",
"W.W.W.W.W.# T Q 0 v  .1.b s V b { V.E.E.E.E.R.D.B.B.B.B.B.B.B.h.B.g.B.B.h.B.B.B.B.V.D.V.B.i.6 / 1.{ d J / 1.U g v $ W.W.W.W.W.W.",
"W.W.W.W.W.- V 6.W 3 C Q 7.J g y >.V.E.E.E.Y.C.B.B.h.h.B.h.h.B.B.B.B.B.B.B.B.h.B.B.B.B.B.g.d., h V 1.{ w A R 9.H 0 y   W.W.W.W.W.",
"W.W.W.W.@ V x 9. .~ ~ U e.v / y 6.B.Y.R.D.V.h.B.B.B.B.h.B.B.h.B.B.B.B.h.B.B.B.B.B.B.B.B.B.d.a ( z 4.<.R ^ b e.v / M o W.W.W.W.W.",
"W.W.W.W.@ N r X...Q B u 7.R  .9 6.B.B.B.B.B.h.B.h.B.V.C.V.h.h.h.B.Z.P.D.B.h.B.B.B.B.B.B.B.f.s C 9  .>.W Z u 1.Q / n O W.W.W.W.W.",
"W.W.W.W.O z X.4.z 6 x 4.{ g 6 6 6.h.h.B.B.h.B.B.B.C.R.E.R.C.B.h.C.R.E.E.C.B.B.B.h.B.B.B.h.h.a w X.5.U 6 x 4.#.q 6 R G . W.W.W.W.",
"W.W.W.W.& /  .X.s V  .>.U p R g <.h.B.h.B.h.B.h.h.D.E.E.E.R.V.h.H.E.E.E.Z.B.B.B.h.h.h.B.h.h.W v X.{ a v /  .W i C ,.R @ W.W.W.W.",
"W.W.W.o q M z 0...g B R 2.Y w q e.h.B.B.h.B.B.B.h.C.E.E.E.Y.B.B.H.E.E.R.V.i.9.0.h.h.h.B.h.B.d.q g 7.<.s B U 0./ u x R $ W.W.W.W.",
"W.W.W.o g ,.N 6./ / ^ U e.v Q V g.B.B.h.h.f.u.i.h.B.D.Y.Y.C.B.B.B.H.H.c./ 0 v 9.h.B.B.h.B.h.h.V 6 <.O.~ ;.z 9.U <.A W > W.W.W.W.",
"W.W.W.# s M t <. .g n V 2.V s +.h.B.h.h.h.f.>.w s ~ i.B.B.B.B.B.B.B.B.R o c i.h.h.h.h.h.B.B.f.e.6 .. .z l z 2.R z l U p W.W.W.W.",
"W.W.W.O q V 6.o.c g  .8.T q < i.h.B.h.h.h.h.h.u.v # v f.B.B.B.V.V.B.B.u.<.i.h.B.h.V.V.V.B.B.B.f.s Y g y W 4.W g x >.8.7 W.W.W.W.",
"W.W.W.@ a U | 1.j z ~  .X.4 v f.B.h.B.h.V.V.B.h.f.e.e.g.B.Z.A.b.n.D.V.h.h.h.B.B.D.R.E.R.D.h.B.g.Q U c s ~ | O.s c ~ X.g W.W.W.W.",
"W.W.W.3 x S v q...z A T 9.v Q N.B.B.V.Y.R.E.R.Z.B.B.B.V.L.l.p $ $ G L.D.B.B.V.D.R.E.E.E.E.Z.B.B.9.g X.g A U 9.{ V N { T W.W.W.W.",
"W.W.W.> U ,.l O.O...F g 9.g <.h.B.B.Y.E.E.E.E.E.L.D.D.U.U.d         l.E.Y.I.R.E.E.E.E.E.E.E.V.B.d.j O./ | y 2.W 1.M V U W.W.W.W.",
"W.W.W.> 9 q C 4.V 6 l { <.g e.h.B.D.E.E.E.E.E.E.E.E.E.E.T.d       o l.E.E.E.E.E.E.E.E.E.E.E.E.P.V.G U 6 u W 4.V q l } G W.W.W.W.",
"W.W.W.@ g / 2.Q q V :.4.v 0 i.h.V.R.E.E.E.E.E.E.E.E.E.E.E.j..     G L.E.E.E.E.E.E.E.E.E.E.E.E.E.E.%.2 V :.1.R s V { <.< W.W.W.W.",
"W.W.W.# s N A 1.Y q A / <.f A.H.R.E.E.E.E.E.E.E.E.E.E.E.E.E.t.; I G.E.E.E.E.E.E.E.E.E.E.E.E.E.E.E.j.s 7 C ~ 6.H q C :.a W.W.W.W.",
"W.W.W.. w | z 0./ R D U 6.P R.E.E.E.E.E.E.E.E.U.K.E.E.E.E.E.m.2 @.R.E.E.E.E.U.b.%.U.E.E.E.E.E.E.E.z.7 V ~ V e./ ~ C ' 3 W.W.W.W.",
"W.W.W.o c | t X...{ B l ..I E.E.E.E.E.E.E.E.E.-., %.M.J.m.t.J 6 7 Y r.z.z.j.I ; 1 K.E.E.E.E.E.E.E.l.q / D u <.Q X.m y $ W.W.W.W.",
"W.W.W.W.$ w ..4.x 6 v 4.Q G E.E.E.E.E.E.E.E.E.-.    # 3 V >.w.a.a.w.R # @       I U.E.E.E.E.E.E.E.=.a 6 x 4.$.y 6 A ' # W.W.W.W.",
"W.W.W.W.* / >. .0 J X.X.A d L.E.E.E.E.E.E.E.E.G.:     g y.s.s.s.s.s.a.g     @ K J.E.E.E.E.E.E.E.E.) 7 G :. .R a J X.s @ W.W.W.W.",
"W.W.W.W.. M M 9.W w B R e.g m.E.E.E.E.E.E.E.E.E.l.#   ( s.s.s.s.s.s.d.( . : *.U.E.E.E.E.E.E.E.E.J.H { g B U q.W w M & W.W.W.W.W.",
"W.W.W.W.. M N 6.{ / ~ V e.0 %.E.E.E.E.E.E.E.E.E.E.z.1 T s.s.s.s.s.s.s.^ 2 l.R.E.E.E.E.E.E.E.E.E.j.v ../ ;.v 9.U X.N . W.W.W.W.W.",
"W.W.W.W.W.= 9 <.X.c l x 1.v 7 L.E.E.E.E.E.E.E.E.E.E.n.a w.s.s.s.s.s.a.V r.E.E.E.E.E.E.E.E.E.E.L.L { / v l u 2.R V 9 . W.W.W.W.W.",
"W.W.W.W.W.o } o.G y | 6.Q q 2 [ E.E.E.E.E.E.E.E.E.E.E.=.g p.s.s.s.a.~ ) R.E.E.E.E.E.E.E.E.E.R.&.H O.z u ! 6.' s y o W.W.W.W.W.W.",
"W.W.W.W.W.W.6 <.g j ( >./ p N 6 t.E.E.E.E.E.E.E.E.E.E.E.L 0  .2.:.g G F.E.E.E.E.E.E.E.E.E.E.l.0 U >.v g ~ | O.a 7 # W.W.W.W.W.W.",
"W.W.W.W.W.W.@ X.O.z B R 1.R V x 7 k.E.E.E.E.E.E.E.E.E.E.U.] : & : L m.E.E.E.E.E.E.E.E.E.E.z.7 B z 7.1.z Z U q.( O W.W.W.W.W.W.W.",
"W.W.W.W.W.W.W.s o.X.F z e.U 6.N v q =.E.E.E.E.E.E.E.E.E.E.E.G.b.m.U.E.E.E.E.E.E.E.E.E.R.j.j j 3.l ..+...| g 7.s . W.W.W.W.W.W.W.",
"W.W.W.W.W.W.W.@ q 8 l W 1.c 9 m o./ , I K.E.E.E.E.E.E.E.E.E.E.E.E.E.E.E.E.E.E.E.E.E.K.%.) W q w N 4.( w u U { : W.W.W.W.W.W.W.W.",
"W.W.W.W.W.W.W.W.@ y X.4.H g R 1.4.s z g a %.J.E.E.E.E.E.E.E.E.E.E.E.E.E.E.E.E.E.L.t.G U O.g z R 2...s z W O.i W.W.W.W.W.W.W.W.W.",
"W.W.W.W.W.W.W.W.W.$ A ( 1.j g A >./ a x A C a ] b.U.E.E.E.E.E.E.E.E.E.E.E.R.G.=.P a < Z X.O.z x C 7.Y 0 A 6 . W.W.W.W.W.W.W.W.W.",
"W.W.W.W.W.W.W.W.W.X = U 9.R ~ x +.9.V | z q.W y q p ` -.b.G.L.U.L.K.G.v.*._ q s O.R ^ V } 0.V ( z 7...x z O W.W.W.W.W.W.W.W.W.W.",
"W.W.W.W.W.W.W.W.W.W.X > 6.R <.u V 6.W  .t ..O./ A 9 v q , , p f p 3 6 j v U B u <./ :.n V 9.R ;.e  .<.j $ W.W.W.W.W.W.W.W.W.W.W.",
"W.W.W.W.W.W.W.W.W.W.W.# q g 6 ! 4.Q 8 y X.8.V < x 4.O.y < A $.U - 6 / 8.U 6 l +.<.y 6 C 4.W 9 w / 8.v o W.W.W.W.W.W.W.W.W.W.W.W.",
"W.W.W.W.W.W.W.W.W.W.W.W.X , T  .X.s c / X.{ s V >.X.R a R X.X.s v W >.Q a V >.X.T p U X.X.g j R  .0 o W.W.W.W.W.W.W.W.W.W.W.W.W.",
"W.W.W.W.W.W.W.W.W.W.W.W.W.@ $ w <.O.c x M 2.{ a N R 0.Y q M <.O.c M x 7.} y N R q.Y q N >.<.j q < o W.W.W.W.W.W.W.W.W.W.W.W.W.W.",
"W.W.W.W.W.W.W.W.W.W.W.W.W.W.W.o Y 1.b ,.x <./ W | U e.R <.N ..q.T ,.N <.Q ! ;.V e.R :.B { 9.6 O   W.W.W.W.W.W.W.W.W.W.W.W.W.W.W.",
"W.W.W.W.W.W.W.W.W.W.W.W.W.W.W.W.o 2 g B 9 O.X.V B x 2.R V l R 1.z V 9 X. .U N u 2.R U t 9 a @ W.W.W.W.W.W.W.W.W.W.W.W.W.W.W.W.W.",
"W.W.W.W.W.W.W.W.W.W.W.W.W.W.W.W.W.W.  o U } v q A 8.T z l  .5.b y x <.#.z 9 R 4.' q = %   W.W.W.W.W.W.W.W.W.W.W.W.W.W.W.W.W.W.W.",
"W.W.W.W.W.W.W.W.W.W.W.W.W.W.W.W.W.W.W.W.  $ > s R ;./ a b ( >.H z R  .>.s s ( V q $ . W.W.W.W.W.W.W.W.W.W.W.W.W.W.W.W.W.W.W.W.W.",
"W.W.W.W.W.W.W.W.W.W.W.W.W.W.W.W.W.W.W.W.W.W.W.  O , v d q u W >.v y 9 H H > O @ . W.W.W.W.W.W.W.W.W.W.W.W.W.W.W.W.W.W.W.W.W.W.W.",
"W.W.W.W.W.W.W.W.W.W.W.W.W.W.W.W.W.W.W.W.W.W.W.W.W.W.W.@ o # : : ; @ o @ @ W.W.W.W.W.W.W.W.W.W.W.W.W.W.W.W.W.W.W.W.W.W.W.W.W.W.W.",
"W.W.W.W.W.W.W.W.W.W.W.W.W.W.W.W.W.W.W.W.W.W.W.W.W.W.W.W.W.W.W.W.W.W.W.W.W.W.W.W.W.W.W.W.W.W.W.W.W.W.W.W.W.W.W.W.W.W.W.W.W.W.W.W.",
"W.W.W.W.W.W.W.W.W.W.W.W.W.W.W.W.W.W.W.W.W.W.W.W.W.W.W.W.W.W.W.W.W.W.W.W.W.W.W.W.W.W.W.W.W.W.W.W.W.W.W.W.W.W.W.W.W.W.W.W.W.W.W.W.",
"W.W.W.W.W.W.W.W.W.W.W.W.W.W.W.W.W.W.W.W.W.W.W.W.W.W.W.W.W.W.W.W.W.W.W.W.W.W.W.W.W.W.W.W.W.W.W.W.W.W.W.W.W.W.W.W.W.W.W.W.W.W.W.W."
};
